<svg xmlns="http://www.w3.org/2000/svg" viewBox="0 0 482.26 482.26"><defs><style>.cls-1{fill:#666;}.cls-1,.cls-2{stroke:#666;stroke-miterlimit:10;}.cls-2{fill:#fff;}</style></defs><title>editar1</title><g id="Capa_2" data-name="Capa 2"><g id="editar1"><circle class="cls-1" cx="241.13" cy="241.13" r="240.63"/><rect class="cls-2" x="114.07" y="187.76" width="240" height="89.68" transform="translate(-95.92 233.64) rotate(-45)"/><rect class="cls-1" x="121.89" y="219.12" width="190.25" height="5.49" transform="translate(-93.32 218.43) rotate(-45)"/><rect class="cls-1" x="133.63" y="230.86" width="190.25" height="5.49" transform="translate(-98.18 230.17) rotate(-45)"/><rect class="cls-1" x="146.48" y="243.71" width="190.25" height="5.49" transform="translate(-103.5 243.03) rotate(-45)"/><polygon class="cls-2" points="112.22 289.26 178.19 354.92 94.86 372.68 94.86 372.68 112.22 289.26"/><rect class="cls-2" x="280.35" y="113.87" width="109.56" height="35.37" rx="17.68" transform="translate(479.08 461.54) rotate(-135)"/><path class="cls-2" d="M367.33,75.82h0a32.39,32.39,0,0,1,32.39,32.39v14.67a0,0,0,0,1,0,0H334.94a0,0,0,0,1,0,0V108.21a32.39,32.39,0,0,1,32.39-32.39Z" transform="translate(177.84 -230.64) rotate(45)"/></g></g></svg>