<svg xmlns="http://www.w3.org/2000/svg" viewBox="0 0 490.92 490.92"><defs><style>.cls-1,.cls-3{fill:#c1272d;}.cls-1{stroke:#666;stroke-miterlimit:10;}.cls-2{fill:#fff;}</style></defs><title>borrar4</title><g id="Capa_2" data-name="Capa 2"><g id="borrar4"><circle class="cls-1" cx="245.46" cy="245.46" r="244.96"/><path class="cls-2" d="M194.36,424.18A44.24,44.24,0,0,1,150.17,380V169.37H338.64V380a44.24,44.24,0,0,1-44.19,44.19Z"/><path class="cls-2" d="M338.14,169.87V380a43.74,43.74,0,0,1-43.69,43.69H194.36A43.74,43.74,0,0,1,150.67,380V169.87H338.14m1-1H149.67V380a44.69,44.69,0,0,0,44.69,44.69H294.45A44.69,44.69,0,0,0,339.14,380V168.87Z"/><path class="cls-3" d="M125,122.8a9,9,0,0,1,0-12.73L141.05,94a9,9,0,0,1,12.73,0l8.59,8.6-28.8,28.81Z"/><path class="cls-2" d="M147.41,94.36a6,6,0,0,1,4.25,1.76l6.47,6.47-24.56,24.56-6.48-6.47a6,6,0,0,1,0-8.49l16.08-16.07a5.93,5.93,0,0,1,4.24-1.76m0-6a12,12,0,0,0-8.48,3.51L122.85,108a12,12,0,0,0,0,17l10.72,10.72,33.05-33L155.9,91.87a12,12,0,0,0-8.49-3.51Z"/><path class="cls-2" d="M88.24,217.32a19.11,19.11,0,0,1,.35-26.62L99.27,180l-.11-.3a23,23,0,0,1,5.29-24.08l81.28-81.28a22.89,22.89,0,0,1,24.08-5.28l.3.11,12-12a19.07,19.07,0,0,1,26.62-.35Z"/><path class="cls-2" d="M235.62,52.08A18.47,18.47,0,0,1,248,56.83L88.26,216.6A18.59,18.59,0,0,1,89,191.05L99.4,180.6l.45-.45-.22-.6A22.46,22.46,0,0,1,104.8,156l81.28-81.28a22.37,22.37,0,0,1,23.55-5.17l.6.22.46-.46,11.79-11.79a18.45,18.45,0,0,1,13.14-5.44m0-1a19.53,19.53,0,0,0-13.85,5.73L210,68.61A23.39,23.39,0,0,0,185.37,74l-81.28,81.28a23.36,23.36,0,0,0-5.4,24.6L88.24,190.35a19.57,19.57,0,0,0,0,27.69L249.46,56.81a19.51,19.51,0,0,0-13.84-5.73Z"/><rect class="cls-3" x="186.77" y="203.45" width="16.84" height="183.14"/><rect class="cls-3" x="237.48" y="203.45" width="16.84" height="183.14"/><rect class="cls-3" x="288.19" y="203.45" width="16.84" height="183.14"/><path class="cls-2" d="M313.09,142.08a31.3,31.3,0,0,0-2-3.2,4.37,4.37,0,0,0,1.89-4.56c-.52-1.91-2.5-3.44-2.22-5.4.23-1.55,1.8-2.51,2.55-3.89a5,5,0,0,0-1.57-6,8.11,8.11,0,0,0-6.48-1.23,13.87,13.87,0,0,0-1.94.53,7.89,7.89,0,0,0-2.68-1.62,54.52,54.52,0,0,0-10.5-2.92l6.27-1.6a13,13,0,0,0-13.27,0,2.59,2.59,0,0,0-1.64-3.39,4.25,4.25,0,0,0-4,1,12.55,12.55,0,0,0-2.5,3.44l-3.36,6c.35-1.13-1.32-2-2.36-1.47a3.62,3.62,0,0,0-1.45,3.08,15.4,15.4,0,0,1-.22,3,9.4,9.4,0,0,0-6.12.54c-.09,1.41.89,2.62,1.63,3.83s1.2,2.9.23,3.93-2.45.72-3.6.13a14.2,14.2,0,0,0-3.44-1.72c-2.53-.51-5,2-5,4.58s1.71,4.93,3.88,6.33a26.55,26.55,0,0,0,7.23,2.75,18.92,18.92,0,0,1,6.62,2.94l.12.2c-1.9-.63-4.13,1-4.43,3a5.72,5.72,0,0,0,2.84,5.35,14.08,14.08,0,0,0,6.09,1.75c7.6.86,15.27.25,22.88-.36a20.84,20.84,0,0,0,6.62-1.26,7,7,0,0,0,4.32-4.87,5.61,5.61,0,0,0-.19-2.61,8.13,8.13,0,0,1,1.28.21c1.24.31,2.53.9,3.75.5a3.26,3.26,0,0,0,2-3.16A8.13,8.13,0,0,0,313.09,142.08Z"/><path class="cls-2" d="M296.55,66.94c2,.83,3.88-2.11,3-4.11s-3.07-3-5.08-3.79q-7.86-3.15-15.67-6.4l1.27-.5a24,24,0,0,0-7.28,2.14,8.18,8.18,0,0,0-4.46,5.85,1,1,0,0,1,0,.17,3.87,3.87,0,0,0-1.08.75,10,10,0,0,0-2.12,4.13q-1,3.25-2.12,6.51c-1.11,3.42-1.94,7.86.94,10,1.27,1,3,1.15,4.48,1.62s3.13,1.49,3.3,3.08c-1.15-.67-2.43,1.15-1.85,2.34s2,1.65,3.35,1.88c6,1.08,12.14.32,18.17-.45,1.67-.21,3.6-.6,4.35-2.1.95-1.89-.65-4.24,0-6.26.46-1.43,1.9-2.28,2.8-3.48a6.91,6.91,0,0,0,.79-5.92A20.49,20.49,0,0,0,296.55,66.94Z"/><path class="cls-2" d="M365.41,114.8a4.09,4.09,0,0,0-4.73-2.72c1.53-2.26,1.05-5.33.06-7.88s-2.43-5-2.67-7.72,1.26-5.91,4-6.28A19.92,19.92,0,0,1,355.21,88c-2-1.26-3.69-3.48-3.54-5.88.11-1.69,1.06-3.36.63-5s-3.56-1.94-3.36-.26A13.81,13.81,0,0,0,334.53,75a5.42,5.42,0,0,0-2-1.23c-2.66-.86-5.46-.2-8.13.81a4.71,4.71,0,0,0,1.17-5.45c-1.37-2.62-5.31-3.27-7.65-1.46a6.33,6.33,0,0,0-1.3,8l-6.26,2.17c2.66,1,3.49,4.52,2.73,7.26s-2.62,5-3.86,7.59-1.8,5.84,0,8.08c1.1,1.4,2.93,2.14,3.83,3.68s-.51,4.23-2,3.34a8,8,0,0,0,5.56,4.83c-1.65-.28-2.43,2.37-1.29,3.6s3,1.27,4.71,1.14,3.51-.3,4.87.66l-1.29,2,8.07.16c0,2.67,3.26,4.28,5.89,3.84s4.84-2.17,7.2-3.42,5.41-2,7.59-.44a20.84,20.84,0,0,0,2.51,2,4.26,4.26,0,0,0,4.72-1.18,12.4,12.4,0,0,0,2.44-4.54l1,3.19A4.07,4.07,0,0,0,365.41,114.8Z"/></g></g></svg>